# File created by Blade
# Date/Time:  Thu Sep 25 17:33:50 2014
# Frame Rate: 120.000 fps
#------------------------------------------------------
:FULLY-SPECIFIED
:DEGREES
1705
root -7.235429 33.821866 -2.462682 30.831653 21.104111 35.579084
Spine 0.494786 -8.773465 -13.378006
Head -26.664014 -19.664307 -5.480919
LeftShoulder 2.492756 7.576416 18.861685
LeftArm 65.864814 29.467096 -50.003806
LeftForeArm 34.657098 0.000000 109.079495
LeftHand -26.900772 -0.000000 25.123227
LeftHandThumb1 -26.253704 0.000000 33.147579
RightShoulder -15.830453 12.585102 -28.885612
RightArm 10.606859 -30.832538 73.561972
RightForeArm -23.052572 -0.000000 127.450373
RightHand -0.032182 -0.000000 -26.190896
RightHandThumb1 -24.326973 -0.000000 -32.862282
LeftUpLeg -72.488473 30.672465 0.521662
LeftLeg 95.997587 -0.000000 -0.000000
LeftFoot 14.401383 12.600305 -28.076432
LeftToeBase -4.042447 -0.000000 0.000000
RightUpLeg -29.396413 -13.560988 -24.859787
RightLeg 29.036414 -0.000000 -0.000000
RightFoot -12.754542 -24.655139 -7.069467
RightToeBase 0.731818 -0.000000 -0.000000
1706
root -7.252682 33.861037 -2.432595 30.881437 21.157053 36.000620
Spine 0.580191 -9.217386 -13.923734
Head -26.599450 -19.526789 -5.524622
LeftShoulder 2.453633 7.705178 18.789501
LeftArm 66.258955 29.418472 -49.507743
LeftForeArm 34.458628 -0.000000 109.032951
LeftHand -26.356565 -0.000000 24.426394
LeftHandThumb1 -26.253704 0.000000 33.147579
RightShoulder -15.785731 12.584002 -28.825147
RightArm 10.389314 -30.800309 73.651835
RightForeArm -22.950690 0.000000 127.428611
RightHand -0.158579 -0.000000 -26.403885
RightHandThumb1 -24.326973 -0.000000 -32.862282
LeftUpLeg -72.882694 31.349250 1.911389
LeftLeg 97.108213 -0.000000 -0.000000
LeftFoot 14.113421 12.674865 -28.289666
LeftToeBase -3.876867 -0.000000 0.000000
RightUpLeg -29.037052 -13.908929 -25.141923
RightLeg 28.747198 -0.000000 -0.000000
RightFoot -12.625411 -24.482673 -7.083652
RightToeBase 0.617535 -0.000000 -0.000000
1707
root -7.264564 33.900025 -2.402419 30.918756 21.183505 36.410028
Spine 0.681230 -9.518741 -14.474492
Head -26.548686 -19.443005 -5.521880
LeftShoulder 2.535470 7.568870 18.784308
LeftArm 66.383281 29.522928 -49.144328
LeftForeArm 34.323589 -0.000000 109.005331
LeftHand -26.223428 -0.000000 24.224415
LeftHandThumb1 -26.253704 0.000000 33.147579
RightShoulder -15.890523 12.565587 -28.809634
RightArm 10.184352 -30.768535 73.708545
RightForeArm -22.699576 0.000000 127.375952
RightHand 0.065095 -0.000000 -26.450417
RightHandThumb1 -24.326973 -0.000000 -32.862282
LeftUpLeg -73.247108 32.070462 3.281116
LeftLeg 98.265266 -0.000000 -0.000000
LeftFoot 13.916534 12.621136 -28.131590
LeftToeBase -3.780938 -0.000000 0.000000
RightUpLeg -28.690933 -14.332089 -25.417404
RightLeg 28.491493 -0.000000 -0.000000
RightFoot -12.525697 -24.193586 -7.123551
RightToeBase 0.461910 -0.000000 -0.000000
1708
root -7.278544 33.936596 -2.371763 30.928420 21.219094 36.774419
Spine 0.806744 -9.839469 -14.970193
Head -26.552412 -19.259183 -5.529200
LeftShoulder 2.581700 7.455749 18.703118
LeftArm 66.512964 29.575495 -48.841734
LeftForeArm 34.221185 -0.000000 108.979666
LeftHand -26.392563 -0.000000 24.289363
LeftHandThumb1 -26.253704 0.000000 33.147579
RightShoulder -15.980313 12.462823 -28.740797
RightArm 10.156776 -30.741852 73.800828
RightForeArm -22.660997 -0.000000 127.333002
RightHand 0.003934 -0.000000 -26.605641
RightHandThumb1 -24.326973 -0.000000 -32.862282
LeftUpLeg -73.541658 32.756273 4.751415
LeftLeg 99.425877 -0.000000 -0.000000
LeftFoot 13.695417 12.581487 -28.242269
LeftToeBase -3.343567 -0.000000 0.000000
RightUpLeg -28.328080 -14.729339 -25.677330
RightLeg 28.258903 -0.000000 -0.000000
RightFoot -12.452015 -23.808157 -7.209944
RightToeBase 0.380508 -0.000000 -0.000000
1709
root -7.286948 33.974629 -2.342364 30.967063 21.214553 37.098674
Spine 0.822421 -10.125846 -15.405706
Head -26.453283 -19.095587 -5.586734
LeftShoulder 2.630777 7.438105 18.590571
LeftArm 66.617869 29.601876 -48.581071
LeftForeArm 34.086774 -0.000000 108.921472
LeftHand -26.689439 -0.000000 24.650064
LeftHandThumb1 -26.253704 0.000000 33.147579
RightShoulder -15.965708 12.429496 -28.742824
RightArm 9.880187 -30.674883 74.020390
RightForeArm -22.688186 -0.000000 127.344717
RightHand -0.007865 0.000000 -26.470894
RightHandThumb1 -24.326973 -0.000000 -32.862282
LeftUpLeg -73.821938 33.460014 6.226461
LeftLeg 100.622397 -0.000000 -0.000000
LeftFoot 13.566522 12.435862 -28.087186
LeftToeBase -2.915522 -0.000000 0.000000
RightUpLeg -28.043002 -15.167737 -25.892739
RightLeg 28.012164 -0.000000 -0.000000
RightFoot -12.398927 -23.382579 -7.057548
RightToeBase 0.175712 -0.000000 -0.000000
1710
root -7.292827 34.015259 -2.316268 31.003230 21.245141 37.455623
Spine 0.892335 -10.421327 -15.848885
Head -26.383792 -18.901275 -5.615323
LeftShoulder 2.699610 7.419512 18.440846
LeftArm 66.704583 29.599534 -48.345746
LeftForeArm 34.001137 -0.000000 108.863926
LeftHand -26.743132 0.000000 24.577941
LeftHandThumb1 -26.253704 0.000000 33.147579
RightShoulder -16.037044 12.396671 -28.744687
RightArm 9.733468 -30.686309 74.168010
RightForeArm -22.980809 -0.000000 127.284826
RightHand -0.019421 -0.000000 -26.640220
RightHandThumb1 -24.326973 -0.000000 -32.862282
LeftUpLeg -74.062855 34.074265 7.690930
LeftLeg 101.807117 -0.000000 -0.000000
LeftFoot 13.533977 12.380179 -27.877083
LeftToeBase -2.571649 -0.000000 0.000000
RightUpLeg -27.742922 -15.781588 -26.085253
RightLeg 27.748721 -0.000000 -0.000000
RightFoot -12.388393 -22.910417 -6.723672
RightToeBase -0.048250 -0.000000 0.000000
